<?xml version="1.0" standalone="no"?>
<!DOCTYPE svg PUBLIC "-//W3C//DTD SVG 20010904//EN"
 "http://www.w3.org/TR/2001/REC-SVG-20010904/DTD/svg10.dtd">
<svg version="1.0" xmlns="http://www.w3.org/2000/svg"
 width="1024.000000pt" height="1024.000000pt" viewBox="0 0 1024.000000 1024.000000"
 preserveAspectRatio="xMidYMid meet">

<g transform="translate(0.000000,1024.000000) scale(0.100000,-0.100000)"
fill="#000000" stroke="none">
<path d="M4730 8249 c-425 -47 -833 -194 -1195 -433 -465 -306 -808 -718
-1018 -1221 -29 -71 -66 -163 -81 -203 -15 -40 -36 -77 -46 -82 -11 -6 -175
-10 -419 -10 -254 0 -419 -4 -452 -11 -101 -22 -166 -128 -139 -228 14 -54 72
-118 119 -131 24 -8 386 -10 1141 -8 l1105 3 65 31 c36 17 187 100 335 184
579 328 763 408 1105 482 93 20 133 22 355 22 221 1 261 -2 350 -21 284 -63
482 -157 774 -368 44 -33 54 -32 100 10 27 25 48 35 70 35 45 0 81 -38 81 -85
0 -32 -10 -46 -82 -119 -391 -391 -258 -1045 255 -1252 95 -39 117 -57 117
-100 0 -46 -47 -84 -104 -84 -45 0 -133 47 -280 151 -41 29 -81 49 -96 49 -15
0 -47 -14 -71 -31 -237 -165 -405 -247 -624 -303 -379 -97 -737 -79 -1199 61
-99 30 -170 46 -206 46 -99 0 -175 -58 -201 -154 -29 -108 20 -176 166 -228
312 -113 676 -170 1089 -171 l108 0 34 -34 c29 -29 34 -41 34 -80 0 -38 -6
-52 -32 -81 -47 -51 -105 -59 -363 -52 -224 7 -273 12 -458 53 -64 14 -124 23
-133 20 -8 -3 -23 -24 -31 -46 -9 -22 -23 -42 -33 -45 -15 -5 -202 46 -275 75
-37 14 -65 39 -65 57 0 8 18 31 40 53 42 41 50 73 28 103 -11 14 -175 88 -324
145 -56 22 -86 8 -118 -56 -43 -86 -51 -85 -294 35 l-197 98 -1078 3 c-1059 2
-1078 2 -1116 -18 -107 -54 -128 -214 -39 -297 57 -53 54 -53 656 -53 380 0
569 -4 590 -11 21 -7 61 -45 114 -107 226 -266 408 -430 678 -609 432 -288
996 -457 1520 -455 541 1 1088 165 1529 460 166 110 242 172 390 316 334 326
564 715 676 1141 l32 120 78 32 c117 49 182 91 262 170 87 88 141 177 184 303
31 88 33 104 33 230 1 160 -20 247 -87 374 -77 146 -249 300 -397 356 -55 21
-67 37 -96 124 -63 190 -185 438 -303 616 -136 206 -390 485 -576 632 -367
292 -831 495 -1320 579 -138 24 -519 34 -665 18z m640 -415 c207 -26 581 -138
707 -211 40 -23 73 -72 73 -107 0 -39 -29 -83 -65 -100 -51 -25 -94 -18 -245
37 -246 89 -472 133 -730 144 -171 6 -199 14 -230 66 -41 67 -11 159 60 185
42 15 257 8 430 -14z m-865 -64 c35 -21 65 -73 65 -110 0 -12 -7 -37 -16 -55
-17 -37 -52 -57 -194 -111 -240 -91 -526 -264 -715 -432 -118 -104 -262 -268
-341 -387 -47 -70 -64 -87 -98 -100 -33 -13 -48 -14 -71 -5 -75 28 -118 110
-92 173 38 89 219 318 361 454 263 253 541 423 906 554 121 44 150 47 195 19z
m475 -582 c57 -30 83 -77 77 -138 -7 -62 -52 -102 -149 -130 -292 -83 -554
-208 -883 -422 -100 -65 -126 -69 -159 -25 -19 26 -19 30 -5 55 8 15 80 71
159 125 80 54 155 107 168 117 33 29 27 57 -19 100 -28 25 -40 43 -36 54 12
30 364 184 522 227 85 23 240 57 265 58 9 1 36 -9 60 -21z m650 -3 c59 -30 68
-98 21 -146 -33 -32 -67 -37 -110 -14 -58 30 -63 105 -9 150 34 29 57 31 98
10z m1173 -129 c42 -17 83 -66 96 -113 27 -98 -58 -203 -164 -203 -99 0 -185
114 -157 209 30 100 130 147 225 107z m770 -1146 c76 -29 167 -113 204 -188
25 -51 28 -67 28 -162 0 -99 -2 -109 -32 -167 -39 -73 -112 -149 -174 -180
-97 -48 -244 -47 -346 3 -70 34 -155 127 -183 201 -31 82 -35 146 -16 223 37
145 145 255 283 290 59 14 171 5 236 -20z m-758 -1549 c111 -50 135 -180 50
-266 -68 -67 -159 -68 -228 -2 -64 60 -73 155 -20 218 30 35 94 69 133 69 14
0 43 -9 65 -19z m-3045 -547 c168 -95 393 -203 572 -274 90 -35 165 -72 178
-85 52 -56 28 -157 -45 -192 -46 -22 -91 -11 -294 69 -283 112 -598 289 -642
362 -23 38 -24 77 -4 117 18 33 69 69 100 69 11 0 72 -30 135 -66z m2567 5
c47 -29 77 -90 70 -147 -6 -53 -53 -107 -109 -124 -76 -23 -166 31 -188 113
-10 36 -8 47 12 87 43 87 138 118 215 71z m-615 -370 c26 -14 49 -69 41 -100
-8 -31 -32 -59 -62 -70 -31 -12 -86 6 -106 34 -54 78 42 181 127 136z m-553
-54 c28 -14 61 -68 61 -100 0 -32 -33 -86 -61 -100 -44 -23 -225 -20 -265 4
-62 38 -69 127 -14 183 28 27 31 28 140 28 78 0 119 -4 139 -15z"/>
<path d="M5528 6210 c-91 -15 -188 -51 -428 -163 -405 -188 -774 -367 -800
-386 -76 -56 -84 -165 -17 -233 29 -28 1053 -467 1157 -495 47 -13 100 -18
195 -17 121 0 136 2 213 31 202 77 339 217 408 418 23 67 28 97 28 185 1 123
-13 185 -63 295 -81 175 -235 299 -429 349 -76 20 -194 27 -264 16z m228 -393
c145 -74 202 -232 135 -372 -54 -114 -135 -164 -262 -165 -50 0 -94 7 -130 19
-127 45 -583 237 -586 246 -2 6 61 40 139 77 361 168 436 202 473 215 62 20
170 11 231 -20z"/>
<path d="M5566 5671 c-82 -54 -74 -171 14 -216 37 -19 64 -19 107 2 63 30 92
113 59 171 -19 36 -66 62 -111 62 -23 0 -53 -8 -69 -19z"/>
<path d="M1480 5484 c-71 -31 -103 -81 -103 -164 0 -72 22 -114 81 -151 l46
-29 895 0 c891 0 895 0 939 21 64 32 97 86 97 164 0 52 -4 67 -29 99 -15 21
-42 46 -60 57 -30 18 -62 19 -931 19 -779 -1 -905 -3 -935 -16z"/>
<path d="M3365 5046 c-43 -18 -93 -79 -101 -121 -11 -58 1 -122 29 -159 51
-66 50 -66 503 -66 l407 0 41 24 c88 52 113 174 54 264 -48 72 -46 72 -500 72
-310 -1 -410 -4 -433 -14z"/>
<path d="M5844 2545 l-25 -25 3 -253 c3 -248 3 -253 28 -296 43 -76 132 -103
161 -50 17 32 2 68 -36 91 l-35 20 0 249 c0 242 -1 249 -22 269 -29 26 -44 25
-74 -5z"/>
<path d="M3226 2514 c-14 -13 -16 -52 -16 -275 0 -283 5 -310 56 -329 14 -6
85 -10 157 -10 104 0 137 3 155 16 28 19 29 57 2 84 -18 18 -33 20 -134 20
l-113 0 -8 243 c-4 139 -11 247 -17 255 -15 17 -63 15 -82 -4z"/>
<path d="M6571 2446 c-7 -8 -15 -40 -18 -70 -4 -43 -10 -56 -22 -56 -26 0 -41
-21 -41 -55 0 -34 15 -55 41 -55 13 0 17 -16 23 -91 8 -107 22 -145 65 -182
61 -51 136 -54 161 -7 18 33 2 60 -48 81 -26 11 -50 26 -54 32 -4 7 -8 47 -8
90 l0 77 28 0 c40 0 72 26 72 59 0 37 -17 51 -62 51 l-38 0 0 54 c0 36 -5 60
-16 70 -19 20 -68 21 -83 2z"/>
<path d="M3755 2304 c-117 -61 -164 -200 -102 -306 38 -65 78 -91 147 -96 49
-4 60 -1 85 21 l29 24 19 -24 c14 -18 27 -23 50 -21 50 5 57 31 57 216 0 149
-2 164 -20 182 -25 25 -54 26 -77 2 -17 -16 -20 -16 -53 0 -42 22 -95 23 -135
2z m116 -110 c36 -18 59 -67 52 -112 -6 -36 -53 -82 -84 -82 -59 0 -117 70
-103 125 7 28 67 85 90 85 8 0 29 -7 45 -16z"/>
<path d="M4142 2308 c-17 -17 -17 -379 0 -396 16 -16 63 -15 76 1 6 6 12 65
14 129 3 107 5 119 27 142 29 31 69 34 102 7 22 -18 24 -28 29 -145 4 -98 8
-129 20 -136 24 -16 56 -11 74 9 16 17 18 37 14 153 -2 112 -6 138 -24 168
-43 74 -129 101 -204 62 -33 -16 -36 -16 -52 0 -21 21 -59 23 -76 6z"/>
<path d="M4675 2306 c-16 -8 -44 -29 -62 -47 -91 -96 -82 -242 20 -323 31 -25
49 -31 102 -34 48 -3 71 0 90 12 32 21 35 20 35 -9 0 -61 -55 -115 -117 -115
-16 0 -45 11 -65 25 -91 62 -150 -5 -69 -78 61 -55 133 -70 210 -42 54 19 90
47 118 93 22 36 23 46 23 273 0 169 -3 238 -12 247 -18 18 -52 15 -80 -7 -24
-19 -25 -19 -54 0 -34 22 -95 24 -139 5z m133 -112 c12 -8 29 -28 37 -44 57
-110 -80 -203 -160 -108 -37 44 -34 91 9 134 38 38 77 44 114 18z"/>
<path d="M5103 2301 c-72 -33 -95 -116 -50 -181 18 -27 35 -38 92 -55 78 -23
96 -47 50 -65 -21 -8 -35 -7 -58 5 -38 19 -57 19 -85 -1 -73 -51 65 -134 173
-104 86 24 127 107 91 182 -18 37 -46 53 -136 80 -51 15 -59 38 -18 52 20 7
37 5 69 -9 l41 -19 19 22 c57 71 -85 141 -188 93z"/>
<path d="M5390 2301 c-15 -30 -13 -539 3 -571 14 -29 67 -40 85 -17 6 7 12 57
13 111 3 93 4 97 23 91 37 -13 96 -17 130 -11 66 13 145 118 146 195 0 78 -54
172 -121 206 -38 20 -108 19 -144 -3 -28 -17 -30 -17 -47 0 -24 24 -74 24 -88
-1z m263 -132 c37 -40 37 -88 -2 -131 -59 -67 -156 -26 -156 66 0 96 93 135
158 65z"/>
<path d="M6149 2300 c-41 -22 -96 -80 -110 -119 -28 -71 -4 -170 55 -234 51
-55 143 -65 195 -21 17 14 31 21 31 16 0 -34 72 -56 98 -30 8 8 12 68 12 204
0 166 -2 193 -16 198 -30 12 -64 6 -81 -13 -16 -20 -17 -20 -41 0 -32 25 -95
24 -143 -1z m114 -101 c35 -18 57 -51 57 -87 0 -91 -84 -143 -145 -89 -53 46
-49 133 8 167 37 23 50 24 80 9z"/>
</g>
</svg>
